<svg xmlns="http://www.w3.org/2000/svg" width="350" height="95" viewBox="0 0 350 95" fill="none">
<path d="M33.2598 36.5949C33.8959 38.3669 34.214 40.4116 34.214 42.5926C34.214 42.7743 34.214 42.9561 34.214 43.1378C34.214 45.546 32.76 47.636 30.7153 48.5902C28.08 49.7261 24.6722 50.7258 20.901 51.3164C18.0839 51.7708 15.4031 51.9525 13.0404 51.9071L8.86019 61.7215C8.67844 62.0395 8.36038 62.3121 7.99689 62.3121C7.7697 62.3121 7.54252 62.2213 7.36077 62.085L0.318057 56.269C0.136309 56.0873 0 55.8147 0 55.5421C0 55.224 0.136311 54.9514 0.408932 54.7696L28.6252 28.598C29.8066 27.5075 31.3969 26.826 33.1689 26.826C34.9864 26.826 36.6675 27.553 37.8943 28.7343L44.1646 35.1409C44.3009 35.3227 44.3918 35.5498 44.3918 35.777C44.3918 36.3223 43.9829 36.7312 43.4376 36.7312L33.2598 36.5949Z" fill="white"></path>
<path d="M33.2598 36.5949C33.8959 38.3669 34.214 40.4116 34.214 42.5926C34.214 42.7743 34.214 42.9561 34.214 43.1378C34.214 45.546 32.76 47.636 30.7153 48.5902C28.08 49.7261 24.6722 50.7258 20.901 51.3164C18.0839 51.7708 15.4031 51.9525 13.0404 51.9071L8.86019 61.7215C8.67844 62.0395 8.36038 62.3121 7.99689 62.3121C7.7697 62.3121 7.54252 62.2213 7.36077 62.085L0.318057 56.269C0.136309 56.0873 0 55.8147 0 55.5421C0 55.224 0.136311 54.9514 0.408932 54.7696L28.6252 28.598C29.8066 27.5075 31.3969 26.826 33.1689 26.826C34.9864 26.826 36.6675 27.553 37.8943 28.7343L44.1646 35.1409C44.3009 35.3227 44.3918 35.5498 44.3918 35.777C44.3918 36.3223 43.9829 36.7312 43.4376 36.7312L33.2598 36.5949Z" fill="white"></path>
<path d="M80.6049 89.8924C81.0139 89.438 81.2865 88.8019 81.2865 88.1658C81.2865 86.7118 80.1051 85.5759 78.6966 85.5759C78.015 85.5759 77.4243 85.8485 76.97 86.2574C75.1071 88.0295 73.017 89.0291 70.1544 89.0745C67.5191 89.1199 65.0655 88.0749 63.3389 86.3483C62.8391 85.8939 62.203 85.5759 61.476 85.5759C60.6581 85.5759 60.0675 85.8939 59.5677 86.4392C57.9319 88.1203 55.7055 89.1654 53.1611 89.1654C50.6166 89.1654 48.4356 88.2112 46.7999 86.4846C46.3001 85.8939 45.5731 85.5304 44.8007 85.5304C44.0737 85.5304 43.3467 85.8485 42.8923 86.3483C41.1203 88.1203 38.7576 89.1199 36.0768 89.1199C33.4415 89.1199 30.9879 88.0295 29.2613 86.2574C28.7615 85.803 28.1254 85.485 27.3984 85.485C25.9444 85.485 24.8085 86.6663 24.8085 88.0749C24.8085 88.711 25.0811 89.438 25.49 89.8924C27.8527 92.6186 31.4423 94.3452 35.3498 94.3452C38.1669 94.3452 40.8477 93.5273 42.9832 92.0279C43.3921 91.6644 43.9828 91.4827 44.6189 91.4827C45.3005 91.4827 45.8912 91.7098 46.3455 92.1188C48.2084 93.4819 50.5257 94.3452 53.0248 94.3452C55.6147 94.3452 57.9774 93.4819 59.9312 91.9825C60.3855 91.619 60.9308 91.3918 61.5214 91.3918C62.1576 91.3918 62.6574 91.5735 63.1117 91.937C65.2473 93.4364 67.8372 94.2997 70.6088 94.2997C74.5618 94.436 78.1513 92.5731 80.6049 89.8924Z" fill="white"></path>
<path d="M80.6049 89.8924C81.0139 89.438 81.2865 88.8019 81.2865 88.1658C81.2865 86.7118 80.1051 85.5759 78.6966 85.5759C78.015 85.5759 77.4243 85.8485 76.97 86.2574C75.1071 88.0295 73.017 89.0291 70.1544 89.0745C67.5191 89.1199 65.0655 88.0749 63.3389 86.3483C62.8391 85.8939 62.203 85.5759 61.476 85.5759C60.6581 85.5759 60.0675 85.8939 59.5677 86.4392C57.9319 88.1203 55.7055 89.1654 53.1611 89.1654C50.6166 89.1654 48.4356 88.2112 46.7999 86.4846C46.3001 85.8939 45.5731 85.5304 44.8007 85.5304C44.0737 85.5304 43.3467 85.8485 42.8923 86.3483C41.1203 88.1203 38.7576 89.1199 36.0768 89.1199C33.4415 89.1199 30.9879 88.0295 29.2613 86.2574C28.7615 85.803 28.1254 85.485 27.3984 85.485C25.9444 85.485 24.8085 86.6663 24.8085 88.0749C24.8085 88.711 25.0811 89.438 25.49 89.8924C27.8527 92.6186 31.4423 94.3452 35.3498 94.3452C38.1669 94.3452 40.8477 93.5273 42.9832 92.0279C43.3921 91.6644 43.9828 91.4827 44.6189 91.4827C45.3005 91.4827 45.8912 91.7098 46.3455 92.1188C48.2084 93.4819 50.5257 94.3452 53.0248 94.3452C55.6147 94.3452 57.9774 93.4819 59.9312 91.9825C60.3855 91.619 60.9308 91.3918 61.5214 91.3918C62.1576 91.3918 62.6574 91.5735 63.1117 91.937C65.2473 93.4364 67.8372 94.2997 70.6088 94.2997C74.5618 94.436 78.1513 92.5731 80.6049 89.8924Z" fill="white"></path>
<path d="M73.7439 16.7844C73.7439 15.9666 73.0624 15.285 72.2445 15.285H33.8504C33.0325 15.285 32.3055 15.9211 32.3055 16.739V20.0104C32.3055 20.8283 33.0325 21.6007 33.8504 21.6007H50.662L47.5723 64.6749C41.9381 63.13 37.349 59.2679 34.8045 54.1335H19.5377C18.7199 54.1335 18.0838 54.8605 18.0838 55.6784L18.0383 59.6314C18.0383 60.4492 18.7653 61.1762 19.6286 61.1762H23.6725C27.3529 73.8985 39.0756 83.1676 52.9793 83.1676C66.8829 83.1676 78.6511 73.8077 82.3315 61.0853H86.1936C87.0115 61.0853 87.7385 60.4038 87.7385 59.5859L87.693 55.6329C87.693 54.8151 87.0569 54.0881 86.239 54.0881H71.2903C68.7459 59.4042 64.1567 63.13 58.3863 64.7203L55.4329 21.5553H72.1991C73.0169 21.5553 73.7439 20.9646 73.7439 20.1013V16.7844Z" fill="white"></path>
<path d="M73.7439 16.7844C73.7439 15.9666 73.0624 15.285 72.2445 15.285H33.8504C33.0325 15.285 32.3055 15.9211 32.3055 16.739V20.0104C32.3055 20.8283 33.0325 21.6007 33.8504 21.6007H50.662L47.5723 64.6749C41.9381 63.13 37.349 59.2679 34.8045 54.1335H19.5377C18.7199 54.1335 18.0838 54.8605 18.0838 55.6784L18.0383 59.6314C18.0383 60.4492 18.7653 61.1762 19.6286 61.1762H23.6725C27.3529 73.8985 39.0756 83.1676 52.9793 83.1676C66.8829 83.1676 78.6511 73.8077 82.3315 61.0853H86.1936C87.0115 61.0853 87.7385 60.4038 87.7385 59.5859L87.693 55.6329C87.693 54.8151 87.0569 54.0881 86.239 54.0881H71.2903C68.7459 59.4042 64.1567 63.13 58.3863 64.7203L55.4329 21.5553H72.1991C73.0169 21.5553 73.7439 20.9646 73.7439 20.1013V16.7844Z" fill="white"></path>
<path d="M62.3849 12.4225C62.9755 12.4225 63.4299 11.9681 63.4299 11.3775C63.4299 11.0594 63.2936 10.7868 63.0664 10.605L57.4777 6.37941L63.0664 2.01747C63.2482 1.83572 63.3845 1.5631 63.3845 1.24505C63.3845 0.654367 62.8847 0.199997 62.3394 0.199997H48.3903C47.5724 0.199997 46.8909 0.926987 46.8909 1.74485L46.8455 10.9685C46.8455 11.7864 47.527 12.4679 48.3449 12.4679L62.3849 12.4225Z" fill="white"></path>
<path d="M62.3849 12.4225C62.9755 12.4225 63.4299 11.9681 63.4299 11.3775C63.4299 11.0594 63.2936 10.7868 63.0664 10.605L57.4777 6.37941L63.0664 2.01747C63.2482 1.83572 63.3845 1.5631 63.3845 1.24505C63.3845 0.654367 62.8847 0.199997 62.3394 0.199997H48.3903C47.5724 0.199997 46.8909 0.926987 46.8909 1.74485L46.8455 10.9685C46.8455 11.7864 47.527 12.4679 48.3449 12.4679L62.3849 12.4225Z" fill="white"></path>
<path d="M71.8356 36.504C71.1995 38.2761 70.8815 40.3207 70.8815 42.5017C70.8815 42.6834 70.8815 42.8652 70.8815 43.0469C70.8815 45.4551 72.3355 47.5452 74.3801 48.4993C77.0154 49.6353 80.4232 50.6349 84.1945 51.2255C87.0115 51.6799 89.6923 51.8617 92.055 51.8162L96.2352 61.6306C96.417 61.9486 96.735 62.2213 97.0985 62.2213C97.3257 62.2213 97.5529 62.1304 97.7347 61.9941L104.777 56.1782C104.959 55.9964 105.095 55.7692 105.095 55.4512C105.095 55.1331 104.959 54.8605 104.686 54.6788L76.4702 28.5071C75.2888 27.4166 73.6985 26.7351 71.9265 26.7351C70.109 26.7351 68.4279 27.4621 67.2011 28.6434L60.9308 35.05C60.7945 35.2318 60.7036 35.459 60.7036 35.6861C60.7036 36.2314 61.1125 36.6403 61.6578 36.6403L71.8356 36.504Z" fill="white"></path>
<path d="M71.8356 36.504C71.1995 38.2761 70.8815 40.3207 70.8815 42.5017C70.8815 42.6834 70.8815 42.8652 70.8815 43.0469C70.8815 45.4551 72.3355 47.5452 74.3801 48.4993C77.0154 49.6353 80.4232 50.6349 84.1945 51.2255C87.0115 51.6799 89.6923 51.8617 92.055 51.8162L96.2352 61.6306C96.417 61.9486 96.735 62.2213 97.0985 62.2213C97.3257 62.2213 97.5529 62.1304 97.7347 61.9941L104.777 56.1782C104.959 55.9964 105.095 55.7692 105.095 55.4512C105.095 55.1331 104.959 54.8605 104.686 54.6788L76.4702 28.5071C75.2888 27.4166 73.6985 26.7351 71.9265 26.7351C70.109 26.7351 68.4279 27.4621 67.2011 28.6434L60.9308 35.05C60.7945 35.2318 60.7036 35.459 60.7036 35.6861C60.7036 36.2314 61.1125 36.6403 61.6578 36.6403L71.8356 36.504Z" fill="white"></path>
<path d="M349.955 93.4819C349.955 93.391 349.909 93.3455 349.909 93.3001C349.864 93.2547 349.864 93.2092 349.818 93.2092C349.773 93.1638 349.727 93.1638 349.682 93.1638H345.865V83.9856C345.865 83.9401 345.865 83.8947 345.82 83.8492C345.82 83.8038 345.774 83.8038 345.684 83.7584C345.638 83.7584 345.547 83.7129 345.456 83.7129C345.366 83.7129 345.275 83.7129 345.138 83.7129C345.002 83.7129 344.911 83.7129 344.82 83.7129C344.729 83.7129 344.639 83.7584 344.593 83.7584C344.548 83.7584 344.502 83.8038 344.457 83.8492C344.457 83.8947 344.411 83.9401 344.411 83.9856V93.7999C344.411 94.0271 344.457 94.1634 344.593 94.2543C344.684 94.3452 344.82 94.3906 344.957 94.3906H349.637C349.682 94.3906 349.727 94.3906 349.773 94.3451C349.818 94.2997 349.818 94.2997 349.864 94.2543C349.909 94.2088 349.909 94.118 349.909 94.0725C349.909 93.9817 349.909 93.8908 349.909 93.7999C349.955 93.6636 349.955 93.5727 349.955 93.4819ZM334.461 90.483H330.78L332.598 85.2123L334.461 90.483ZM333.597 84.031C333.597 83.9856 333.552 83.9401 333.507 83.8947C333.461 83.8492 333.416 83.8038 333.325 83.8038C333.234 83.8038 333.143 83.7584 333.052 83.7584C332.916 83.7584 332.78 83.7584 332.598 83.7584C332.416 83.7584 332.28 83.7584 332.189 83.7584C332.098 83.7584 332.007 83.8038 331.916 83.8038C331.871 83.8492 331.78 83.8492 331.78 83.8947C331.734 83.9401 331.734 83.9856 331.689 84.031L328.145 93.8908C328.1 94.0271 328.1 94.118 328.054 94.1634C328.054 94.2543 328.054 94.2997 328.1 94.3451C328.145 94.3906 328.19 94.3906 328.327 94.436C328.418 94.436 328.554 94.436 328.736 94.436C328.872 94.436 329.008 94.436 329.099 94.436C329.19 94.436 329.281 94.3906 329.326 94.3906C329.372 94.3452 329.417 94.3451 329.463 94.2997C329.508 94.2543 329.508 94.2088 329.508 94.1634L330.371 91.6189H334.779L335.687 94.2088C335.687 94.2543 335.733 94.2997 335.778 94.3451C335.824 94.3906 335.824 94.3906 335.915 94.436C335.96 94.436 336.051 94.4815 336.142 94.4815C336.233 94.4815 336.369 94.4815 336.551 94.4815C336.733 94.4815 336.869 94.4815 336.96 94.4815C337.051 94.4815 337.141 94.436 337.187 94.3906C337.232 94.3452 337.232 94.2997 337.232 94.2088C337.232 94.118 337.187 94.0271 337.141 93.9362L333.597 84.031ZM321.148 87.8477C321.057 88.1203 320.921 88.3475 320.693 88.5292C320.512 88.711 320.284 88.8927 319.966 88.9836C319.694 89.0745 319.33 89.1654 318.921 89.1654H317.649V84.8943H318.967C319.194 84.8943 319.467 84.8943 319.694 84.9397C319.966 84.9852 320.194 85.076 320.421 85.2123C320.648 85.3486 320.875 85.5758 321.011 85.8485C321.193 86.1211 321.239 86.4846 321.239 86.9389C321.284 87.3024 321.239 87.6205 321.148 87.8477ZM322.602 85.803C322.511 85.485 322.329 85.1669 322.102 84.9397C321.875 84.6671 321.648 84.4853 321.329 84.3036C321.011 84.1219 320.739 84.031 320.466 83.9401C320.194 83.8947 319.921 83.8492 319.739 83.8038C319.512 83.8038 319.33 83.7584 319.058 83.7584H316.786C316.649 83.7584 316.513 83.8038 316.422 83.8947C316.286 83.9855 316.241 84.1219 316.241 84.349V94.1634C316.241 94.2088 316.241 94.2543 316.286 94.2997C316.286 94.3451 316.331 94.3452 316.422 94.3906C316.468 94.3906 316.559 94.436 316.649 94.436C316.74 94.436 316.831 94.436 316.967 94.436C317.104 94.436 317.24 94.436 317.331 94.436C317.422 94.436 317.513 94.3906 317.558 94.3906C317.604 94.3906 317.649 94.3451 317.695 94.2997C317.74 94.2543 317.74 94.2088 317.74 94.1634V90.3467H318.967C319.603 90.3467 320.194 90.2558 320.648 90.1195C321.102 89.9378 321.511 89.7106 321.829 89.438C322.147 89.1199 322.42 88.7564 322.602 88.3475C322.783 87.9386 322.874 87.4387 322.874 86.8935C322.783 86.4846 322.693 86.1211 322.602 85.803ZM307.88 83.9856C307.88 83.9401 307.88 83.8947 307.835 83.8492C307.835 83.8038 307.789 83.8038 307.698 83.7584C307.653 83.7584 307.562 83.7129 307.471 83.7129C307.38 83.7129 307.289 83.7129 307.153 83.7129C307.017 83.7129 306.926 83.7129 306.835 83.7129C306.744 83.7129 306.653 83.7584 306.608 83.7584C306.562 83.7584 306.517 83.8038 306.472 83.8492C306.426 83.8947 306.426 83.9401 306.426 83.9856V94.1634C306.426 94.2088 306.426 94.2543 306.472 94.2997C306.472 94.3451 306.517 94.3452 306.608 94.3906C306.653 94.3906 306.744 94.436 306.835 94.436C306.926 94.436 307.017 94.436 307.153 94.436C307.289 94.436 307.426 94.436 307.471 94.436C307.562 94.436 307.653 94.3906 307.698 94.3906C307.744 94.3906 307.789 94.3451 307.835 94.2997C307.835 94.2543 307.88 94.2088 307.88 94.1634V83.9856ZM299.065 92.5731C299.065 92.4822 299.065 92.4368 299.02 92.3914C299.02 92.3459 298.975 92.3005 298.975 92.3005C298.929 92.3005 298.929 92.2551 298.884 92.2551C298.793 92.2551 298.702 92.3005 298.566 92.3914C298.429 92.4822 298.248 92.6185 298.02 92.7549C297.793 92.8912 297.521 92.9821 297.202 93.1184C296.884 93.2092 296.521 93.2547 296.112 93.2547C295.612 93.2547 295.158 93.1638 294.749 92.982C294.34 92.8003 294.022 92.5277 293.749 92.2096C293.477 91.8461 293.249 91.4372 293.113 90.8919C292.977 90.3921 292.886 89.8015 292.886 89.1199C292.886 88.4384 292.977 87.8477 293.113 87.3024C293.249 86.7572 293.477 86.3483 293.749 85.9848C294.022 85.6213 294.34 85.3487 294.749 85.1669C295.158 84.9852 295.567 84.8943 296.021 84.8943C296.475 84.8943 296.839 84.9397 297.157 85.0306C297.475 85.1215 297.748 85.2578 297.929 85.3941C298.157 85.5304 298.338 85.6213 298.475 85.7576C298.611 85.8485 298.702 85.9393 298.793 85.9393C298.838 85.9393 298.884 85.9393 298.884 85.8939C298.929 85.8485 298.929 85.8485 298.975 85.7576C298.975 85.7121 299.02 85.6213 299.02 85.5758C299.02 85.485 299.02 85.3941 299.02 85.3032C299.02 85.2123 299.02 85.1215 299.02 85.0306C299.02 84.9397 299.02 84.8943 298.975 84.8488C298.975 84.8034 298.929 84.758 298.929 84.7125C298.929 84.6671 298.838 84.6217 298.793 84.5308C298.702 84.4399 298.566 84.349 298.384 84.2582C298.202 84.1219 297.975 84.031 297.748 83.9401C297.521 83.8492 297.248 83.8038 296.93 83.7129C296.657 83.6675 296.339 83.622 296.021 83.622C295.34 83.622 294.703 83.7584 294.113 83.9856C293.522 84.2582 293.068 84.6217 292.659 85.076C292.25 85.5304 291.932 86.1211 291.705 86.8026C291.477 87.4842 291.387 88.2566 291.387 89.1654C291.387 90.0287 291.477 90.8011 291.705 91.4372C291.932 92.0733 292.204 92.664 292.613 93.1184C293.022 93.5727 293.477 93.8908 294.022 94.118C294.567 94.3451 295.203 94.4815 295.885 94.4815C296.294 94.4815 296.657 94.436 296.975 94.3906C297.293 94.2997 297.611 94.2088 297.884 94.118C298.157 94.0271 298.338 93.8908 298.52 93.7999C298.702 93.709 298.793 93.6182 298.884 93.5273C298.929 93.4819 298.975 93.4364 299.02 93.391C299.02 93.3455 299.065 93.3001 299.065 93.2547C299.065 93.2092 299.111 93.1638 299.111 93.0729C299.111 93.0275 299.111 92.9366 299.111 92.8457C299.065 92.7549 299.065 92.6186 299.065 92.5731ZM283.662 83.9856C283.662 83.9401 283.662 83.8947 283.617 83.8492C283.571 83.8038 283.571 83.8038 283.481 83.7584C283.435 83.7584 283.344 83.7129 283.253 83.7129C283.162 83.7129 283.072 83.7129 282.935 83.7129C282.799 83.7129 282.708 83.7129 282.617 83.7129C282.526 83.7129 282.435 83.7584 282.39 83.7584C282.345 83.7584 282.299 83.8038 282.254 83.8492C282.208 83.8947 282.208 83.9401 282.208 83.9856V94.1634C282.208 94.2088 282.208 94.2543 282.254 94.2997C282.254 94.3451 282.299 94.3452 282.39 94.3906C282.435 94.3906 282.526 94.436 282.617 94.436C282.708 94.436 282.844 94.436 282.935 94.436C283.072 94.436 283.208 94.436 283.253 94.436C283.344 94.436 283.435 94.3906 283.481 94.3906C283.526 94.3906 283.571 94.3451 283.617 94.2997C283.617 94.2543 283.662 94.2088 283.662 94.1634V83.9856ZM273.893 83.9856C273.893 83.9401 273.893 83.8947 273.848 83.8947C273.803 83.8492 273.802 83.8492 273.757 83.8038C273.712 83.7584 273.621 83.7584 273.53 83.7584C273.439 83.7584 273.348 83.7584 273.212 83.7584C273.076 83.7584 272.939 83.7584 272.848 83.7584C272.757 83.7584 272.667 83.8038 272.621 83.8038C272.576 83.8492 272.53 83.8492 272.485 83.8947C272.439 83.9401 272.439 83.9856 272.439 83.9856V89.756C272.439 90.2104 272.439 90.6193 272.439 91.1191C272.439 91.5735 272.439 92.0279 272.439 92.4822C272.303 92.2096 272.167 91.9824 272.076 91.7098C271.94 91.4372 271.803 91.21 271.667 90.9374C271.531 90.6648 271.394 90.3921 271.258 90.1195C271.122 89.8469 270.985 89.5743 270.804 89.3017L268.305 84.6671C268.214 84.4854 268.123 84.349 268.032 84.2582C267.941 84.1673 267.85 84.0764 267.759 83.9856C267.669 83.9401 267.578 83.8947 267.441 83.8492C267.35 83.8038 267.214 83.8038 267.032 83.8038H266.351C266.215 83.8038 266.078 83.8492 265.942 83.9401C265.806 84.031 265.76 84.1673 265.76 84.3945V94.1634C265.76 94.2088 265.76 94.2543 265.806 94.2543C265.851 94.2997 265.851 94.2997 265.896 94.3451C265.942 94.3451 266.033 94.3906 266.124 94.3906C266.215 94.3906 266.305 94.3906 266.442 94.3906C266.578 94.3906 266.714 94.3906 266.805 94.3906C266.896 94.3906 266.987 94.3451 267.032 94.3451C267.078 94.3451 267.123 94.2997 267.169 94.2543C267.214 94.2088 267.214 94.1634 267.214 94.1634V87.7568C267.214 87.3479 267.214 86.939 267.214 86.53C267.214 86.1211 267.214 85.7122 267.169 85.3487C267.305 85.6667 267.487 85.9848 267.669 86.3483C267.85 86.7118 268.032 87.0298 268.168 87.3479L271.394 93.391C271.485 93.6182 271.622 93.7999 271.712 93.9362C271.803 94.0725 271.894 94.1634 272.03 94.2543C272.121 94.3452 272.212 94.3906 272.349 94.436C272.439 94.4815 272.576 94.4815 272.757 94.4815H273.212C273.303 94.4815 273.348 94.4815 273.439 94.436C273.53 94.436 273.575 94.3906 273.621 94.3451C273.666 94.2997 273.712 94.2543 273.757 94.1634C273.802 94.0725 273.802 93.9817 273.802 93.8908V83.9856H273.893ZM257.536 83.9856C257.536 83.9401 257.536 83.8947 257.491 83.8492C257.445 83.8038 257.445 83.8038 257.354 83.7584C257.309 83.7584 257.218 83.7129 257.127 83.7129C257.036 83.7129 256.945 83.7129 256.809 83.7129C256.673 83.7129 256.582 83.7129 256.491 83.7129C256.4 83.7129 256.309 83.7584 256.264 83.7584C256.218 83.7584 256.173 83.8038 256.128 83.8492C256.128 83.8947 256.082 83.9401 256.082 83.9856V90.483C256.082 90.9374 256.037 91.3918 255.9 91.7098C255.764 92.0733 255.628 92.3459 255.401 92.6186C255.173 92.8457 254.901 93.0275 254.583 93.1638C254.265 93.3001 253.901 93.3455 253.492 93.3455C253.083 93.3455 252.72 93.3001 252.402 93.1638C252.084 93.0275 251.811 92.8457 251.584 92.6186C251.357 92.3914 251.175 92.0733 251.084 91.7098C250.948 91.3463 250.902 90.9374 250.902 90.4376V84.031C250.902 83.9856 250.902 83.9401 250.857 83.8947C250.857 83.8492 250.811 83.8492 250.766 83.8038C250.721 83.8038 250.63 83.7584 250.539 83.7584C250.448 83.7584 250.312 83.7584 250.221 83.7584C250.084 83.7584 249.948 83.7584 249.857 83.7584C249.766 83.7584 249.721 83.8038 249.63 83.8038C249.585 83.8038 249.539 83.8492 249.494 83.8947C249.494 83.9401 249.448 83.9856 249.448 84.031V90.6193C249.448 91.2555 249.539 91.8461 249.721 92.3459C249.903 92.8457 250.175 93.2547 250.539 93.5727C250.902 93.8908 251.311 94.1634 251.766 94.2997C252.265 94.4815 252.765 94.5723 253.356 94.5723C253.992 94.5723 254.583 94.4815 255.083 94.2997C255.582 94.118 255.991 93.8453 256.355 93.5273C256.718 93.1638 256.991 92.7549 257.173 92.2551C257.354 91.7552 257.445 91.1646 257.445 90.5285V83.9856H257.536ZM241.224 84.3945C241.224 84.2582 241.224 84.1673 241.179 84.1219C241.133 84.031 241.088 83.9855 241.043 83.9401C240.997 83.8947 240.906 83.8492 240.861 83.8038C240.77 83.7584 240.724 83.7584 240.634 83.7584H239.725C239.589 83.7584 239.452 83.7584 239.361 83.8038C239.27 83.8492 239.18 83.8947 239.089 83.9401C238.998 83.9855 238.907 84.1219 238.862 84.2127C238.771 84.349 238.725 84.4854 238.68 84.6217L235.545 92.2551H235.499L232.455 84.5762C232.41 84.4399 232.364 84.3036 232.273 84.2127C232.228 84.1219 232.137 84.031 232.046 83.9401C231.955 83.8492 231.819 83.8038 231.683 83.8038C231.546 83.7584 231.41 83.7584 231.228 83.7584H230.365C230.229 83.7584 230.092 83.8038 229.956 83.8947C229.82 83.9855 229.774 84.1673 229.774 84.3945V94.1634C229.774 94.2088 229.774 94.2543 229.82 94.2997C229.82 94.3451 229.865 94.3452 229.91 94.3906C229.956 94.3906 230.047 94.436 230.138 94.436C230.229 94.436 230.319 94.436 230.456 94.436C230.592 94.436 230.728 94.436 230.819 94.436C230.91 94.436 231.001 94.3906 231.046 94.3906C231.092 94.3906 231.137 94.3451 231.183 94.2997C231.183 94.2543 231.228 94.2088 231.228 94.1634V84.9397L234.818 94.2088C234.818 94.2543 234.863 94.2543 234.863 94.2997C234.909 94.3451 234.954 94.3452 234.999 94.3906C235.045 94.3906 235.136 94.436 235.181 94.436C235.272 94.436 235.363 94.436 235.499 94.436C235.59 94.436 235.681 94.436 235.772 94.436C235.863 94.436 235.908 94.436 235.954 94.3906C235.999 94.3906 236.044 94.3451 236.09 94.2997C236.135 94.2543 236.135 94.2543 236.181 94.2088L239.907 84.9397V94.1634C239.907 94.2088 239.907 94.2543 239.952 94.2997C239.997 94.3451 239.997 94.3452 240.088 94.3906C240.134 94.3906 240.225 94.436 240.316 94.436C240.406 94.436 240.497 94.436 240.634 94.436C240.77 94.436 240.906 94.436 240.997 94.436C241.088 94.436 241.179 94.3906 241.224 94.3906C241.27 94.3906 241.315 94.3451 241.361 94.2997C241.406 94.2543 241.406 94.2088 241.406 94.1634V84.3945H241.224ZM209.964 90.483H206.283L208.101 85.2123L209.964 90.483ZM209.146 84.031C209.146 83.9856 209.1 83.9401 209.055 83.8947C209.01 83.8492 208.964 83.8038 208.873 83.8038C208.782 83.8038 208.691 83.7584 208.601 83.7584C208.464 83.7584 208.328 83.7584 208.146 83.7584C207.964 83.7584 207.828 83.7584 207.737 83.7584C207.646 83.7584 207.556 83.8038 207.465 83.8038C207.374 83.8492 207.328 83.8492 207.328 83.8947C207.283 83.9401 207.283 83.9856 207.237 84.031L203.693 93.8908C203.648 94.0271 203.648 94.118 203.603 94.1634C203.603 94.2543 203.603 94.2997 203.648 94.3451C203.693 94.3906 203.739 94.3906 203.875 94.436C203.966 94.436 204.102 94.436 204.284 94.436C204.42 94.436 204.557 94.436 204.648 94.436C204.738 94.436 204.829 94.3906 204.875 94.3906C204.92 94.3452 204.966 94.3451 205.011 94.2997C205.057 94.2543 205.057 94.2088 205.057 94.1634L205.92 91.6189H210.327L211.236 94.2088C211.281 94.2543 211.281 94.2997 211.327 94.3451C211.372 94.3906 211.372 94.3906 211.463 94.436C211.509 94.436 211.599 94.4815 211.69 94.4815C211.781 94.4815 211.917 94.4815 212.099 94.4815C212.281 94.4815 212.417 94.4815 212.508 94.4815C212.599 94.4815 212.69 94.436 212.735 94.3906C212.781 94.3452 212.781 94.2997 212.781 94.2088C212.781 94.118 212.735 94.0271 212.69 93.9362L209.146 84.031ZM194.924 87.4388C194.833 87.6659 194.697 87.8477 194.515 88.0294C194.333 88.2112 194.106 88.302 193.834 88.3929C193.561 88.4838 193.243 88.5292 192.879 88.5292H191.516V84.9397H192.698C192.97 84.9397 193.198 84.9397 193.379 84.9852C193.561 84.9852 193.697 85.0306 193.834 85.076C194.288 85.2123 194.561 85.3941 194.788 85.7121C194.97 85.9848 195.06 86.3483 195.06 86.7572C195.06 86.9844 195.015 87.2116 194.924 87.4388ZM197.151 93.9817C197.151 93.8908 197.06 93.7545 197.014 93.5727L196.06 91.2554C195.969 90.9828 195.833 90.7556 195.742 90.5285C195.651 90.3013 195.515 90.1195 195.378 89.9832C195.242 89.8015 195.106 89.6652 194.97 89.5743C194.833 89.438 194.651 89.3471 194.515 89.3017C194.833 89.2108 195.106 89.0745 195.378 88.8927C195.651 88.7564 195.833 88.5292 196.015 88.3475C196.196 88.1203 196.333 87.8931 196.424 87.6205C196.514 87.3479 196.56 87.0298 196.56 86.6663C196.56 86.3028 196.514 85.9848 196.378 85.6667C196.287 85.3486 196.105 85.076 195.878 84.8488C195.651 84.6217 195.424 84.4399 195.106 84.2582C194.788 84.1219 194.424 83.9855 194.015 83.9401C193.879 83.9401 193.697 83.8947 193.516 83.8947C193.334 83.8947 193.107 83.8947 192.834 83.8947H190.562C190.426 83.8947 190.335 83.9401 190.199 84.031C190.108 84.1219 190.017 84.2582 190.017 84.4854V94.1634C190.017 94.2088 190.017 94.2543 190.062 94.2997C190.062 94.3451 190.108 94.3452 190.199 94.3906C190.244 94.3906 190.335 94.436 190.426 94.436C190.517 94.436 190.608 94.436 190.744 94.436C190.88 94.436 190.971 94.436 191.062 94.436C191.153 94.436 191.244 94.3906 191.289 94.3906C191.335 94.3906 191.38 94.3451 191.425 94.2997C191.471 94.2543 191.471 94.2088 191.471 94.1634V89.6652H192.425C192.743 89.6652 193.016 89.7106 193.243 89.8015C193.47 89.8923 193.652 90.0286 193.834 90.2104C194.015 90.3921 194.152 90.5739 194.288 90.8465C194.424 91.0737 194.515 91.3463 194.652 91.6189L195.606 94.118C195.606 94.1634 195.651 94.2543 195.697 94.2997C195.742 94.3451 195.787 94.3906 195.833 94.3906C195.878 94.436 195.969 94.436 196.06 94.436C196.151 94.436 196.287 94.436 196.424 94.436C196.605 94.436 196.696 94.436 196.832 94.436C196.923 94.436 197.014 94.3906 197.06 94.3906C197.105 94.3906 197.151 94.3451 197.151 94.2997C197.151 94.2543 197.151 94.2088 197.151 94.1634C197.151 94.118 197.151 94.0725 197.151 93.9817ZM180.066 90.483H176.386L178.203 85.2123L180.066 90.483ZM179.248 84.031C179.203 83.9856 179.203 83.9401 179.158 83.8947C179.112 83.8492 179.067 83.8038 178.976 83.8038C178.885 83.8038 178.794 83.7584 178.703 83.7584C178.567 83.7584 178.431 83.7584 178.249 83.7584C178.067 83.7584 177.931 83.7584 177.84 83.7584C177.749 83.7584 177.658 83.8038 177.567 83.8038C177.476 83.8492 177.431 83.8492 177.431 83.8947C177.385 83.9401 177.385 83.9856 177.34 84.031L173.796 93.8908C173.751 94.0271 173.751 94.118 173.705 94.1634C173.705 94.2543 173.705 94.2997 173.751 94.3451C173.796 94.3906 173.841 94.3906 173.978 94.436C174.069 94.436 174.205 94.436 174.387 94.436C174.523 94.436 174.659 94.436 174.75 94.436C174.841 94.436 174.932 94.3906 174.977 94.3906C175.023 94.3452 175.068 94.3451 175.114 94.2997C175.159 94.2543 175.159 94.2088 175.159 94.1634L176.022 91.6189H180.43L181.339 94.2088C181.339 94.2543 181.384 94.2997 181.429 94.3451C181.475 94.3906 181.475 94.3906 181.566 94.436C181.611 94.436 181.702 94.4815 181.793 94.4815C181.884 94.4815 182.02 94.4815 182.202 94.4815C182.384 94.4815 182.52 94.4815 182.611 94.4815C182.702 94.4815 182.792 94.436 182.838 94.3906C182.883 94.3452 182.883 94.2997 182.883 94.2088C182.883 94.118 182.838 94.0271 182.792 93.9362L179.248 84.031ZM166.481 84.3945C166.481 84.2582 166.481 84.1673 166.435 84.1219C166.39 84.031 166.344 83.9855 166.299 83.9401C166.253 83.8947 166.163 83.8492 166.117 83.8038C166.026 83.7584 165.981 83.7584 165.89 83.7584H164.981C164.845 83.7584 164.709 83.7584 164.618 83.8038C164.527 83.8492 164.436 83.8947 164.345 83.9401C164.254 83.9855 164.163 84.1219 164.118 84.2127C164.027 84.349 163.982 84.4854 163.936 84.6217L160.801 92.2551H160.756L157.666 84.6217C157.62 84.4854 157.575 84.349 157.484 84.2582C157.439 84.1673 157.348 84.0764 157.212 83.9856C157.121 83.8947 156.984 83.8492 156.848 83.8492C156.712 83.8038 156.575 83.8038 156.394 83.8038H155.53C155.394 83.8038 155.258 83.8492 155.121 83.9401C154.985 84.031 154.94 84.2127 154.94 84.4399V94.1634C154.94 94.2088 154.94 94.2543 154.985 94.2997C154.985 94.3451 155.031 94.3452 155.076 94.3906C155.121 94.3906 155.212 94.436 155.303 94.436C155.394 94.436 155.485 94.436 155.621 94.436C155.758 94.436 155.894 94.436 155.985 94.436C156.076 94.436 156.166 94.3906 156.212 94.3906C156.257 94.3906 156.303 94.3451 156.348 94.2997C156.348 94.2543 156.394 94.2088 156.394 94.1634V84.9397L159.983 94.2088C159.983 94.2543 160.029 94.2543 160.029 94.2997C160.074 94.3451 160.119 94.3452 160.165 94.3906C160.21 94.3906 160.301 94.436 160.392 94.436C160.483 94.436 160.574 94.436 160.71 94.436C160.801 94.436 160.892 94.436 160.983 94.436C161.074 94.436 161.119 94.436 161.21 94.3906C161.255 94.3906 161.301 94.3451 161.346 94.2997C161.392 94.2543 161.392 94.2543 161.437 94.2088L165.163 84.9397V94.1634C165.163 94.2088 165.163 94.2543 165.208 94.2997C165.208 94.3451 165.254 94.3452 165.345 94.3906C165.39 94.3906 165.481 94.436 165.572 94.436C165.663 94.436 165.754 94.436 165.89 94.436C166.026 94.436 166.163 94.436 166.253 94.436C166.344 94.436 166.39 94.3906 166.481 94.3906C166.526 94.3906 166.572 94.3451 166.617 94.2997C166.617 94.2543 166.662 94.2088 166.662 94.1634V84.3945H166.481ZM142.99 80.5323C142.899 80.5323 142.853 80.5324 142.763 80.5778C142.717 80.5778 142.672 80.6232 142.581 80.6687C142.535 80.7141 142.49 80.7595 142.445 80.805L140.627 82.6679C140.582 82.7133 140.536 82.7588 140.536 82.8042C140.536 82.8496 140.536 82.8951 140.582 82.8951C140.627 82.9405 140.673 82.9405 140.718 82.9405C140.809 82.9405 140.9 82.9405 141.036 82.9405C141.172 82.9405 141.309 82.9405 141.4 82.9405C141.49 82.9405 141.581 82.9405 141.627 82.8951C141.672 82.8951 141.763 82.8496 141.808 82.8042C141.854 82.7588 141.899 82.7587 141.945 82.7133L143.262 81.3502L144.535 82.7588C144.58 82.8042 144.58 82.8042 144.626 82.8496C144.671 82.8951 144.716 82.8951 144.762 82.8951C144.807 82.8951 144.898 82.9405 144.989 82.9405C145.08 82.9405 145.216 82.9405 145.398 82.9405C145.534 82.9405 145.625 82.9405 145.671 82.9405C145.761 82.9405 145.807 82.8951 145.852 82.8951C145.898 82.8496 145.898 82.8496 145.898 82.8042C145.898 82.7588 145.852 82.7133 145.807 82.6679L144.035 80.805C143.989 80.7595 143.944 80.7141 143.899 80.6687C143.853 80.6232 143.808 80.6232 143.762 80.5778C143.717 80.5778 143.626 80.5323 143.58 80.5323C143.49 80.5323 143.399 80.5323 143.308 80.5323C143.172 80.5323 143.081 80.5323 142.99 80.5323ZM144.944 90.483H141.263L143.081 85.2123L144.944 90.483ZM144.126 84.031C144.126 83.9856 144.08 83.9401 144.035 83.8947C143.989 83.8492 143.944 83.8038 143.853 83.8038C143.762 83.8038 143.671 83.7584 143.58 83.7584C143.444 83.7584 143.308 83.7584 143.126 83.7584C142.944 83.7584 142.808 83.7584 142.717 83.7584C142.626 83.7584 142.535 83.8038 142.445 83.8038C142.399 83.8492 142.308 83.8492 142.308 83.8947C142.263 83.9401 142.263 83.9856 142.217 84.031L138.673 93.8908C138.628 94.0271 138.628 94.118 138.582 94.1634C138.582 94.2543 138.582 94.2997 138.628 94.3451C138.673 94.3906 138.719 94.3906 138.855 94.436C138.946 94.436 139.082 94.436 139.264 94.436C139.4 94.436 139.537 94.436 139.627 94.436C139.718 94.436 139.809 94.3906 139.855 94.3906C139.9 94.3452 139.946 94.3451 139.991 94.2997C140.036 94.2543 140.036 94.2088 140.036 94.1634L140.9 91.6189H145.307L146.216 94.2088C146.216 94.2543 146.261 94.2997 146.307 94.3451C146.352 94.3906 146.352 94.3906 146.443 94.436C146.488 94.436 146.579 94.4815 146.67 94.4815C146.761 94.4815 146.897 94.4815 147.079 94.4815C147.261 94.4815 147.397 94.4815 147.488 94.4815C147.579 94.4815 147.67 94.436 147.715 94.3906C147.761 94.3452 147.761 94.2997 147.761 94.2088C147.761 94.118 147.715 94.0271 147.67 93.9362L144.126 84.031ZM132.312 92.5731C132.312 92.4822 132.312 92.4368 132.267 92.3914C132.267 92.3459 132.221 92.3005 132.221 92.3005C132.176 92.3005 132.176 92.2551 132.13 92.2551C132.04 92.2551 131.949 92.3005 131.812 92.3914C131.676 92.4822 131.494 92.6185 131.267 92.7549C131.04 92.8912 130.767 92.9821 130.449 93.1184C130.131 93.2092 129.768 93.2547 129.359 93.2547C128.859 93.2547 128.405 93.1638 127.996 92.982C127.587 92.8003 127.269 92.5277 126.996 92.2096C126.723 91.8461 126.496 91.4372 126.36 90.8919C126.224 90.3921 126.133 89.8015 126.133 89.1199C126.133 88.4384 126.224 87.8477 126.36 87.3024C126.496 86.7572 126.723 86.3483 126.996 85.9848C127.269 85.6213 127.587 85.3487 127.996 85.1669C128.405 84.9852 128.813 84.8943 129.268 84.8943C129.722 84.8943 130.086 84.9397 130.404 85.0306C130.722 85.1215 130.994 85.2578 131.176 85.3941C131.403 85.5304 131.585 85.6213 131.721 85.7576C131.858 85.8485 131.949 85.9393 132.04 85.9393C132.085 85.9393 132.13 85.9393 132.13 85.8939C132.176 85.8485 132.176 85.8485 132.221 85.7576C132.221 85.7121 132.267 85.6213 132.267 85.5758C132.267 85.485 132.267 85.3941 132.267 85.3032C132.267 85.2123 132.267 85.1215 132.267 85.0306C132.267 84.9397 132.267 84.8943 132.221 84.8488C132.221 84.8034 132.176 84.758 132.176 84.7125C132.176 84.6671 132.085 84.6217 132.04 84.5308C131.949 84.4399 131.812 84.349 131.631 84.2582C131.449 84.1219 131.222 84.031 130.994 83.9401C130.767 83.8492 130.495 83.8038 130.177 83.7129C129.904 83.6675 129.586 83.622 129.268 83.622C128.586 83.622 127.95 83.7584 127.36 83.9856C126.769 84.2582 126.314 84.6217 125.906 85.076C125.497 85.5304 125.179 86.1211 124.951 86.8026C124.724 87.4842 124.633 88.2566 124.633 89.1654C124.633 90.0287 124.724 90.8011 124.951 91.4372C125.179 92.0733 125.451 92.664 125.86 93.1184C126.269 93.5727 126.723 93.8908 127.269 94.118C127.814 94.3451 128.45 94.4815 129.132 94.4815C129.54 94.4815 129.904 94.436 130.222 94.3906C130.54 94.2997 130.858 94.2088 131.131 94.118C131.403 94.0271 131.585 93.8908 131.767 93.7999C131.949 93.709 132.04 93.6182 132.13 93.5273C132.176 93.4819 132.221 93.4364 132.267 93.391C132.267 93.3455 132.312 93.3001 132.312 93.2547C132.312 93.2092 132.358 93.1638 132.358 93.0729C132.358 93.0275 132.358 92.9366 132.358 92.8457C132.312 92.7549 132.312 92.6186 132.312 92.5731Z" fill="white"></path>
<path d="M334.733 47.2726H322.692L328.826 29.6431L334.733 47.2726ZM350 63.8116L332.325 15.3759H324.873L307.244 63.8116H317.104L320.012 55.224H337.232L340.095 63.8116H350ZM294.113 39.5938C294.113 48.9083 293.567 51.1802 291.75 53.1794C290.387 54.7242 288.297 55.7693 285.707 55.7693C283.117 55.7693 280.936 54.7697 279.573 53.1794C277.755 51.1347 277.256 48.9083 277.256 39.5938C277.256 30.2792 277.71 28.0074 279.573 26.0082C280.936 24.4633 283.117 23.4183 285.707 23.4183C288.297 23.4183 290.387 24.4179 291.75 26.0082C293.567 28.0074 294.113 30.2792 294.113 39.5938ZM303.609 39.5938C303.609 31.2334 303.7 25.1903 298.793 20.2831C295.385 16.8753 291.25 14.967 285.752 14.967C280.254 14.967 276.029 16.8753 272.621 20.2831C267.714 25.1903 267.85 31.2334 267.85 39.5938C267.85 47.9541 267.714 53.9973 272.621 58.9044C276.029 62.3122 280.254 64.2205 285.752 64.2205C291.25 64.2205 295.43 62.3122 298.793 58.9044C303.654 53.9973 303.609 47.9541 303.609 39.5938ZM249.63 29.3705C249.63 32.6874 247.404 34.9592 243.36 34.9592H234.091V23.7817H243.36C247.404 23.7817 249.63 26.0536 249.63 29.3705ZM250.312 49.3627C250.312 52.6341 248.267 55.3604 243.996 55.3604H234.136V43.4559H243.996C248.267 43.4559 250.312 46.0912 250.312 49.3627ZM259.762 49.8625C259.762 43.4105 256.037 40.3208 253.083 38.9577C255.537 37.8217 259.081 34.3231 259.081 28.9615C259.081 20.6466 253.583 15.3759 244.132 15.3759H224.685V63.8116H244.95C253.583 63.8116 259.762 58.9044 259.762 49.8625ZM215.78 49.499C215.78 45.2279 214.644 41.6839 212.054 39.2303C210.009 37.3219 207.237 36.0951 202.785 35.5045L197.06 34.6866C195.106 34.414 193.515 33.687 192.561 32.7782C191.562 31.8241 191.153 30.5518 191.153 29.325C191.153 26.0082 193.606 23.1911 198.65 23.1911C201.83 23.1911 205.511 23.6 208.601 26.508L214.598 20.6012C210.463 16.6027 205.602 14.967 198.968 14.967C188.472 14.967 182.111 21.0101 182.111 29.6431C182.111 33.7324 183.247 36.8676 185.564 39.1848C187.745 41.2749 190.789 42.5926 194.969 43.1833L200.831 44.0011C203.057 44.3192 204.148 44.819 205.102 45.6823C206.101 46.6365 206.601 48.045 206.601 49.7716C206.601 53.6338 203.602 55.7693 198.014 55.7693C193.515 55.7693 189.381 54.7697 186.336 51.68L180.112 57.8139C184.882 62.6303 190.471 64.2205 197.787 64.2205C207.964 64.2205 215.78 58.9044 215.78 49.499ZM173.205 15.3759H163.754V63.8116H173.205V15.3759ZM156.03 63.8116V55.3604H134.039V15.3759H124.588V63.8116H156.03Z" fill="white"></path>
</svg>